<svg width="24" height="24" viewBox="0 0 24 24" fill="black" xmlns="http://www.w3.org/2000/svg">
<path d="M17 22C16.1667 22 15.4583 21.7083 14.875 21.125C14.2917 20.5417 14 19.8333 14 19C14 18.9 14.025 18.6667 14.075 18.3L7.05 14.2C6.78333 14.45 6.475 14.646 6.125 14.788C5.775 14.93 5.4 15.0007 5 15C4.16667 15 3.45833 14.7083 2.875 14.125C2.29167 13.5417 2 12.8333 2 12C2 11.1667 2.29167 10.4583 2.875 9.875C3.45833 9.29167 4.16667 9 5 9C5.4 9 5.775 9.071 6.125 9.213C6.475 9.355 6.78333 9.55067 7.05 9.8L14.075 5.7C14.0417 5.58333 14.021 5.471 14.013 5.363C14.005 5.255 14.0007 5.134 14 5C14 4.16667 14.2917 3.45833 14.875 2.875C15.4583 2.29167 16.1667 2 17 2C17.8333 2 18.5417 2.29167 19.125 2.875C19.7083 3.45833 20 4.16667 20 5C20 5.83333 19.7083 6.54167 19.125 7.125C18.5417 7.70833 17.8333 8 17 8C16.6 8 16.225 7.929 15.875 7.787C15.525 7.645 15.2167 7.44933 14.95 7.2L7.925 11.3C7.95833 11.4167 7.97933 11.5293 7.988 11.638C7.99667 11.7467 8.00067 11.8673 8 12C7.99933 12.1327 7.99533 12.2537 7.988 12.363C7.98067 12.4723 7.95967 12.5847 7.925 12.7L14.95 16.8C15.2167 16.55 15.525 16.3543 15.875 16.213C16.225 16.0717 16.6 16.0007 17 16C17.8333 16 18.5417 16.2917 19.125 16.875C19.7083 17.4583 20 18.1667 20 19C20 19.8333 19.7083 20.5417 19.125 21.125C18.5417 21.7083 17.8333 22 17 22Z"/>
</svg>
