<svg width="24" height="24" viewBox="0 0 24 24" fill="none" xmlns="http://www.w3.org/2000/svg">
<path d="M10.7143 13.2857H4.28572C3.92143 13.2857 3.61629 13.1623 3.37029 12.9154C3.12429 12.6686 3.00086 12.3634 3 12C2.99915 11.6366 3.12258 11.3314 3.37029 11.0846C3.618 10.8377 3.92315 10.7143 4.28572 10.7143H10.7143V4.28572C10.7143 3.92143 10.8377 3.61629 11.0846 3.37029C11.3314 3.12429 11.6366 3.00086 12 3C12.3634 2.99915 12.669 3.12258 12.9167 3.37029C13.1644 3.618 13.2874 3.92315 13.2857 4.28572V10.7143H19.7143C20.0786 10.7143 20.3841 10.8377 20.631 11.0846C20.8779 11.3314 21.0009 11.6366 21 12C20.9991 12.3634 20.8757 12.669 20.6297 12.9167C20.3837 13.1644 20.0786 13.2874 19.7143 13.2857H13.2857V19.7143C13.2857 20.0786 13.1623 20.3841 12.9154 20.631C12.6686 20.8779 12.3634 21.0009 12 21C11.6366 20.9991 11.3314 20.8757 11.0846 20.6297C10.8377 20.3837 10.7143 20.0786 10.7143 19.7143V13.2857Z" fill="black"/>
</svg>
