<svg width="24" height="24" viewBox="0 0 24 24" fill="none" xmlns="http://www.w3.org/2000/svg">
<path d="M14 7V3C14 2.44772 14.4477 2 15 2C15.5523 2 16 2.44772 16 3V7H20C20.5523 7 21 7.44772 21 8C21 8.55228 20.5523 9 20 9H16C15.4696 9 14.961 8.78913 14.5859 8.41406C14.2109 8.03899 14 7.53043 14 7Z" fill="black"/>
<path d="M8 15V5C8 4.20435 8.3163 3.44152 8.87891 2.87891C9.44152 2.3163 10.2044 2 11 2H15C15.2652 2 15.5195 2.10543 15.707 2.29297L20.707 7.29297C20.8946 7.4805 21 7.73478 21 8V15C21 15.7957 20.6837 16.5585 20.1211 17.1211C19.5585 17.6837 18.7957 18 18 18H11C10.2043 18 9.44151 17.6837 8.87891 17.1211C8.3163 16.5585 8 15.7957 8 15ZM10 15C10 15.2652 10.1054 15.5195 10.293 15.707C10.4805 15.8946 10.7348 16 11 16H18C18.2652 16 18.5195 15.8946 18.707 15.707C18.8946 15.5195 19 15.2652 19 15V8.41406L14.5859 4H11C10.7348 4 10.4805 4.10543 10.293 4.29297C10.1054 4.48051 10 4.73478 10 5V15Z" fill="black"/>
<path d="M4 19V9C4 8.20435 4.3163 7.44152 4.87891 6.87891C5.44152 6.3163 6.20435 6 7 6H9C9.55228 6 10 6.44772 10 7C10 7.55228 9.55228 8 9 8H7C6.73478 8 6.4805 8.10543 6.29297 8.29297C6.10543 8.4805 6 8.73478 6 9V19C6 19.2652 6.10543 19.5195 6.29297 19.707C6.48051 19.8946 6.73478 20 7 20H14C14.2652 20 14.5195 19.8946 14.707 19.707C14.8946 19.5195 15 19.2652 15 19V17C15 16.4477 15.4477 16 16 16C16.5523 16 17 16.4477 17 17V19C17 19.7957 16.6837 20.5585 16.1211 21.1211C15.5585 21.6837 14.7957 22 14 22H7C6.20435 22 5.44152 21.6837 4.87891 21.1211C4.3163 20.5585 4 19.7956 4 19Z" fill="black"/>
</svg>
