<svg width="24" height="24" viewBox="0 0 24 24" fill="none" xmlns="http://www.w3.org/2000/svg">
<rect x="2.5" y="2.5" width="19" height="19" rx="2.5" fill="#F4EDD6"/>
<rect x="2.5" y="2.5" width="19" height="19" rx="2.5" stroke="#D9B746" stroke-linejoin="round"/>
<path d="M11.8 18.192C10.3067 18.192 9.20267 17.6853 8.488 16.672C7.784 15.6587 7.432 14.24 7.432 12.416C7.432 10.592 7.784 9.17333 8.488 8.16C9.20267 7.14667 10.3067 6.64 11.8 6.64C13.2933 6.64 14.392 7.14667 15.096 8.16C15.8107 9.17333 16.168 10.592 16.168 12.416C16.168 14.24 15.8107 15.6587 15.096 16.672C14.392 17.6853 13.2933 18.192 11.8 18.192ZM11.8 16.256C12.4827 16.256 12.952 16.0053 13.208 15.504C13.4747 14.992 13.608 14.2827 13.608 13.376V11.44C13.608 10.544 13.4747 9.84533 13.208 9.344C12.952 8.832 12.4827 8.576 11.8 8.576C11.1173 8.576 10.6427 8.832 10.376 9.344C10.12 9.84533 9.992 10.544 9.992 11.44V13.392C9.992 14.288 10.12 14.992 10.376 15.504C10.6427 16.0053 11.1173 16.256 11.8 16.256Z" fill="#6E5402"/>
</svg>
