<svg width="24" height="24" viewBox="0 0 24 24" fill="none" xmlns="http://www.w3.org/2000/svg">
<rect x="2" y="2" width="20" height="20" rx="3" fill="#F4D6E9"/>
<path d="M8.216 18V6.832H12.536C13.08 6.832 13.5653 6.91733 13.992 7.088C14.4187 7.248 14.776 7.48267 15.064 7.792C15.3627 8.10133 15.5867 8.47467 15.736 8.912C15.8853 9.34933 15.96 9.84 15.96 10.384C15.96 10.928 15.8853 11.4187 15.736 11.856C15.5867 12.2933 15.3627 12.6667 15.064 12.976C14.776 13.2853 14.4187 13.5253 13.992 13.696C13.5653 13.856 13.08 13.936 12.536 13.936H10.632V18H8.216ZM10.632 12H11.928C12.4933 12 12.8827 11.8933 13.096 11.68C13.32 11.4667 13.432 11.1147 13.432 10.624V10.144C13.432 9.65333 13.32 9.30133 13.096 9.088C12.8827 8.87467 12.4933 8.768 11.928 8.768H10.632V12Z" fill="#6E0246"/>
</svg>
