<svg width="24" height="24" viewBox="0 0 24 24" fill="none" xmlns="http://www.w3.org/2000/svg">
<rect x="2" y="2" width="20" height="20" rx="3" fill="#D6F4F0"/>
<path d="M8.232 6.832H12.152C13.2507 6.832 14.088 7.09867 14.664 7.632C15.2507 8.16533 15.544 8.89067 15.544 9.808C15.544 10.448 15.384 10.96 15.064 11.344C14.7547 11.7173 14.3067 11.9893 13.72 12.16V12.256C14.4133 12.4267 14.9467 12.7253 15.32 13.152C15.704 13.5787 15.896 14.1707 15.896 14.928C15.896 15.8667 15.5973 16.6133 15 17.168C14.4133 17.7227 13.5867 18 12.52 18H8.232V6.832ZM11.784 16.32C12.36 16.32 12.7813 16.224 13.048 16.032C13.3147 15.84 13.448 15.488 13.448 14.976V14.512C13.448 14 13.3147 13.648 13.048 13.456C12.7813 13.264 12.36 13.168 11.784 13.168H10.568V16.32H11.784ZM11.48 11.568C12.0453 11.568 12.456 11.4773 12.712 11.296C12.968 11.104 13.096 10.7627 13.096 10.272V9.792C13.096 9.30133 12.968 8.96533 12.712 8.784C12.456 8.60267 12.0453 8.512 11.48 8.512H10.568V11.568H11.48Z" fill="#026E61"/>
</svg>
