<svg width="24" height="24" viewBox="0 0 24 24" fill="black" xmlns="http://www.w3.org/2000/svg">
<path fill-rule="evenodd" clip-rule="evenodd" d="M12.707 2.293C12.5195 2.10553 12.2652 2.00021 12 2.00021C11.7348 2.00021 11.4805 2.10553 11.293 2.293L9.293 4.293C9.15319 4.43285 9.05798 4.61102 9.01942 4.80497C8.98085 4.99892 9.00065 5.19995 9.07632 5.38265C9.15199 5.56535 9.28013 5.72152 9.44454 5.8314C9.60895 5.94129 9.80225 5.99996 10 6H11V11H6V10C5.99996 9.80225 5.94129 9.60895 5.8314 9.44454C5.72152 9.28013 5.56535 9.15199 5.38265 9.07632C5.19995 9.00065 4.99892 8.98085 4.80497 9.01942C4.61102 9.05798 4.43285 9.15319 4.293 9.293L2.293 11.293C2.10553 11.4805 2.00021 11.7348 2.00021 12C2.00021 12.2652 2.10553 12.5195 2.293 12.707L4.293 14.707C4.43285 14.8468 4.61102 14.942 4.80497 14.9806C4.99892 15.0192 5.19995 14.9993 5.38265 14.9237C5.56535 14.848 5.72152 14.7199 5.8314 14.5555C5.94129 14.391 5.99996 14.1978 6 14V13H11V18H10C9.80225 18 9.60895 18.0587 9.44454 18.1686C9.28013 18.2785 9.15199 18.4346 9.07632 18.6173C9.00065 18.8 8.98085 19.0011 9.01942 19.195C9.05798 19.389 9.15319 19.5671 9.293 19.707L11.293 21.707C11.4805 21.8945 11.7348 21.9998 12 21.9998C12.2652 21.9998 12.5195 21.8945 12.707 21.707L14.707 19.707C14.8468 19.5671 14.942 19.389 14.9806 19.195C15.0192 19.0011 14.9993 18.8 14.9237 18.6173C14.848 18.4346 14.7199 18.2785 14.5555 18.1686C14.391 18.0587 14.1978 18 14 18H13V13H18V14C18 14.1978 18.0587 14.391 18.1686 14.5555C18.2785 14.7199 18.4346 14.848 18.6173 14.9237C18.8 14.9993 19.0011 15.0192 19.195 14.9806C19.389 14.942 19.5671 14.8468 19.707 14.707L21.707 12.707C21.8945 12.5195 21.9998 12.2652 21.9998 12C21.9998 11.7348 21.8945 11.4805 21.707 11.293L19.707 9.293C19.5671 9.15319 19.389 9.05798 19.195 9.01942C19.0011 8.98085 18.8 9.00065 18.6173 9.07632C18.4346 9.15199 18.2785 9.28013 18.1686 9.44454C18.0587 9.60895 18 9.80225 18 10V11H13V6H14C14.1978 5.99996 14.391 5.94129 14.5555 5.8314C14.7199 5.72152 14.848 5.56535 14.9237 5.38265C14.9993 5.19995 15.0192 4.99892 14.9806 4.80497C14.942 4.61102 14.8468 4.43285 14.707 4.293L12.707 2.293Z"/>
</svg>
