<svg width="32" height="31" viewBox="0 0 32 31" fill="black" xmlns="http://www.w3.org/2000/svg">
<path d="M18.4004 22.7619C18.4004 21.002 16.9695 19.5715 15.2002 19.5714C13.4308 19.5714 12 21.002 12 22.7619C12 24.5218 13.4307 25.9523 15.2002 25.9523C16.9696 25.9522 18.4004 24.5217 18.4004 22.7619ZM20.4004 22.7619C20.4004 25.6306 18.0698 27.9522 15.2002 27.9523C12.3305 27.9523 10 25.6306 10 22.7619C10 19.8931 12.3305 17.5714 15.2002 17.5714C18.0698 17.5715 20.4004 19.8932 20.4004 22.7619Z"/>
<path d="M18.4 22.7617V6.00001C18.4 5.64371 18.59 5.31473 18.898 5.13575C19.206 4.95689 19.5857 4.9546 19.8951 5.13087L27.2457 9.3213C27.7253 9.59484 27.8921 10.2058 27.6187 10.6856C27.3452 11.1653 26.7343 11.3331 26.2545 11.0596L20.4 7.72071V22.7617C20.4 23.314 19.9523 23.7617 19.4 23.7617C18.8477 23.7617 18.4 23.314 18.4 22.7617Z"/>
<path d="M10 14C9.71667 14 9.47934 13.904 9.288 13.712C9.09667 13.52 9.00067 13.2827 9 13V10H6C5.71667 10 5.47934 9.904 5.288 9.712C5.09667 9.52 5.00067 9.28267 5 9C4.99934 8.71734 5.09534 8.48 5.288 8.288C5.48067 8.096 5.718 8 6 8H9V5C9 4.71667 9.096 4.47934 9.288 4.288C9.48 4.09667 9.71734 4.00067 10 4C10.2827 3.99934 10.5203 4.09534 10.713 4.288C10.9057 4.48067 11.0013 4.718 11 5V8H14C14.2833 8 14.521 8.096 14.713 8.288C14.905 8.48 15.0007 8.71734 15 9C14.9993 9.28267 14.9033 9.52034 14.712 9.713C14.5207 9.90567 14.2833 10.0013 14 10H11V13C11 13.2833 10.904 13.521 10.712 13.713C10.52 13.905 10.2827 14.0007 10 14Z"/>
</svg>
