<svg width="24" height="24" viewBox="0 0 24 24" fill="black" xmlns="http://www.w3.org/2000/svg">
<path d="M4 16C3.71667 16 3.47934 15.904 3.288 15.712C3.09667 15.52 3.00067 15.2827 3 15C2.99934 14.7173 3.09534 14.48 3.288 14.288C3.48067 14.096 3.718 14 4 14H9C9.28334 14 9.521 14.096 9.713 14.288C9.905 14.48 10.0007 14.7173 10 15C9.99934 15.2827 9.90334 15.5203 9.712 15.713C9.52067 15.9057 9.28334 16.0013 9 16H4ZM4 12C3.71667 12 3.47934 11.904 3.288 11.712C3.09667 11.52 3.00067 11.2827 3 11C2.99934 10.7173 3.09534 10.48 3.288 10.288C3.48067 10.096 3.718 10 4 10H13C13.2833 10 13.521 10.096 13.713 10.288C13.905 10.48 14.0007 10.7173 14 11C13.9993 11.2827 13.9033 11.5203 13.712 11.713C13.5207 11.9057 13.2833 12.0013 13 12H4ZM4 8C3.71667 8 3.47934 7.904 3.288 7.712C3.09667 7.52 3.00067 7.28267 3 7C2.99934 6.71733 3.09534 6.48 3.288 6.288C3.48067 6.096 3.718 6 4 6H13C13.2833 6 13.521 6.096 13.713 6.288C13.905 6.48 14.0007 6.71733 14 7C13.9993 7.28267 13.9033 7.52033 13.712 7.713C13.5207 7.90567 13.2833 8.00133 13 8H4ZM17 20C16.7167 20 16.4793 19.904 16.288 19.712C16.0967 19.52 16.0007 19.2827 16 19V16H13C12.7167 16 12.4793 15.904 12.288 15.712C12.0967 15.52 12.0007 15.2827 12 15C11.9993 14.7173 12.0953 14.48 12.288 14.288C12.4807 14.096 12.718 14 13 14H16V11C16 10.7167 16.096 10.4793 16.288 10.288C16.48 10.0967 16.7173 10.0007 17 10C17.2827 9.99933 17.5203 10.0953 17.713 10.288C17.9057 10.4807 18.0013 10.718 18 11V14H21C21.2833 14 21.521 14.096 21.713 14.288C21.905 14.48 22.0007 14.7173 22 15C21.9993 15.2827 21.9033 15.5203 21.712 15.713C21.5207 15.9057 21.2833 16.0013 21 16H18V19C18 19.2833 17.904 19.521 17.712 19.713C17.52 19.905 17.2827 20.0007 17 20Z"/>
</svg>
